# xmcd
#
# Track frame offsets: 
#        150
#        10420
#        23615
#        34660
#        46462
#        58967
#        71272
#        81922
#
# Disc length: 1242 seconds
#
# Revision: 0
# Processed by: cddbd v1.4PL0 Copyright (c) Steve Scherf et al.
# Submitted via: ExactAudioCopy v0.90b4
#
DISCID=6104d808
DTITLE=George Jones - Lovin' Time
DYEAR=1900
DGENRE=Country
TTITLE0=Love's Gonna Live Here
TTITLE1=Hello Darlin'
TTITLE2=Tender Years
TTITLE3=Our Love Is Forever
TTITLE4=Don't Be Angry
TTITLE5=Take Me
TTITLE6=Let A Little Loving Come In
TTITLE7=I'll Share My World With You
EXTD=
EXTT0=
EXTT1=
EXTT2=
EXTT3=
EXTT4=
EXTT5=
EXTT6=
EXTT7=
PLAYORDER=
